# xmcd CD database file
#
# Track frame offsets:
#	150
#	16060
#	30478
#	49779
#	67863
#	84111
#	100405
#	116528
#	130000
#	147368
#	161560
#	176522
#	191157
#	205215
#	220473
#	235542
#	252221
#	267714
#	281393
#	298140
#	311176
#	325193
#	337942
#
# Disc length: 4701 seconds
#
# Revision: 0
# Processed by: cddbd v1.5.2PL0 Copyright (c) Steve Scherf et al.
# Submitted via: CDex 1.51
#
DISCID=4d125b17
DTITLE=Various Artist - 06
DYEAR=2007
DGENRE=Country
TTITLE0=Tush
TTITLE1=My Poor Old Heart
TTITLE2=The Seashores Of Old Mexico
TTITLE3=Somewhere Down In Texas
TTITLE4=Give It Away
TTITLE5=Lay It On Me
TTITLE6=Beer Or Gasoline
TTITLE7=Steppin' On My Heart
TTITLE8=Sharp Dressed Man
TTITLE9=Steppin' Stone Cha
TTITLE10=Where The Girls Are
TTITLE11=Off My Rocker
TTITLE12=Something Like That
TTITLE13=Swing
TTITLE14=Drinkin' Thinkin'
TTITLE15=If Your Going Through Hell
TTITLE16=It's Alright
TTITLE17=San Antonio Stroll
TTITLE18=All Jacked Up
TTITLE19=Waikiki Cowboy
TTITLE20=Growin' Up Down There
TTITLE21=Jackson
TTITLE22=Divisadero Cha
EXTD=YEAR: 2007
EXTT0=
EXTT1=
EXTT2=
EXTT3=
EXTT4=
EXTT5=
EXTT6=
EXTT7=
EXTT8=
EXTT9=
EXTT10=
EXTT11=
EXTT12=
EXTT13=
EXTT14=
EXTT15=
EXTT16=
EXTT17=
EXTT18=
EXTT19=
EXTT20=
EXTT21=
EXTT22=
PLAYORDER=
